<mxfile host="app.diagrams.net" modified="2023-08-18T10:26:54.352Z" agent="Mozilla/5.0 (Windows NT 10.0; Win64; x64) AppleWebKit/537.36 (KHTML, like Gecko) Chrome/115.0.0.0 Safari/537.36" etag="iu6QpGD3Wp_qq8Gx0jHL" version="21.6.6" type="github">
  <diagram id="6a731a19-8d31-9384-78a2-239565b7b9f0" name="Page-1">
    <mxGraphModel dx="3083" dy="1072" grid="1" gridSize="10" guides="1" tooltips="1" connect="1" arrows="1" fold="1" page="1" pageScale="1" pageWidth="1169" pageHeight="827" background="none" math="0" shadow="0">
      <root>
        <mxCell id="0" />
        <mxCell id="1" parent="0" />
        <UserObject label="" tags="背景" id="IIEYeDENxH2M8i28GUqi-143">
          <mxCell style="vsdxID=1;fillColor=none;gradientColor=none;points=[[0.06,1,0],[0.13,1,0],[0.19,1,0],[0.25,1,0],[0.31,1,0],[0.37,1,0],[0.44,1,0],[0.5,1,0],[0.56,1,0],[0.63,1,0],[0.69,1,0],[0.75,1,0],[0.81,1,0],[0.88,1,0],[0.94,1,0],[0.06,0,0],[0.13,0,0],[0.19,0,0],[0.25,0,0],[0.31,0,0],[0.37,0,0],[0.44,0,0],[0.5,0,0],[0.56,0,0],[0.63,0,0],[0.69,0,0],[0.75,0,0],[0.81,0,0],[0.88,0,0],[0.94,0,0]];labelBackgroundColor=none;rounded=0;strokeColor=none;html=1;whiteSpace=wrap;" vertex="1" parent="1">
            <mxGeometry x="172" y="39" width="1148" height="893" as="geometry" />
          </mxCell>
        </UserObject>
        <mxCell id="IIEYeDENxH2M8i28GUqi-144" style="vsdxID=2;fillColor=#caedb4;gradientColor=none;fillOpacity=0;shape=stencil(nZBLDoAgDERP0z3SIyjew0SURgSD+Lu9kMZoXLhwN9O+tukAlrNpJg1SzDH4QW/URgNYgZTkjA4UkwJUgGXng+6DX1zLfmoymdXo17xh5zmRJ6Q42BWCfc2oJfdAr+Yv+AP9Cb7OJ3H/2JG1HNGz/84klThPVCc=);strokeColor=#323232;strokeWidth=2;points=[[0.06,1,0],[0.13,1,0],[0.19,1,0],[0.25,1,0],[0.31,1,0],[0.37,1,0],[0.44,1,0],[0.5,1,0],[0.56,1,0],[0.63,1,0],[0.69,1,0],[0.75,1,0],[0.81,1,0],[0.88,1,0],[0.94,1,0],[0.06,0,0],[0.13,0,0],[0.19,0,0],[0.25,0,0],[0.31,0,0],[0.37,0,0],[0.44,0,0],[0.5,0,0],[0.56,0,0],[0.63,0,0],[0.69,0,0],[0.75,0,0],[0.81,0,0],[0.88,0,0],[0.94,0,0]];labelBackgroundColor=none;rounded=0;html=1;whiteSpace=wrap;" vertex="1" parent="IIEYeDENxH2M8i28GUqi-143">
          <mxGeometry width="1148" height="893" as="geometry" />
        </mxCell>
        <mxCell id="IIEYeDENxH2M8i28GUqi-145" value="&lt;div style=&quot;font-size: 1px&quot;&gt;&lt;p style=&quot;text-align:left;margin-left:0;margin-right:0;margin-top:0px;margin-bottom:0px;text-indent:0;vertical-align:middle;direction:ltr;&quot;&gt;&lt;font style=&quot;font-size:15px;font-family:0;color:#000000;direction:ltr;letter-spacing:0px;line-height:120%;opacity:1&quot;&gt;&lt;b&gt;屏管家-仓储工作流程&lt;/b&gt;&lt;/font&gt;&lt;/p&gt;&lt;/div&gt;" style="verticalAlign=middle;align=left;overflow=width;vsdxID=3;fillColor=#caedb4;gradientColor=none;shape=stencil(nZBLDoAgDERP0z3SIyjew0SURgSD+Lu9kMZoXLhwN9O+tukAlrNpJg1SzDH4QW/URgNYgZTkjA4UkwJUgGXng+6DX1zLfmoymdXo17xh5zmRJ6Q42BWCfc2oJfdAr+Yv+AP9Cb7OJ3H/2JG1HNGz/84klThPVCc=);strokeColor=#323232;strokeWidth=2;points=[[0.06,1,0],[0.13,1,0],[0.19,1,0],[0.25,1,0],[0.31,1,0],[0.37,1,0],[0.44,1,0],[0.5,1,0],[0.56,1,0],[0.63,1,0],[0.69,1,0],[0.75,1,0],[0.81,1,0],[0.88,1,0],[0.94,1,0],[0.06,0,0],[0.13,0,0],[0.19,0,0],[0.25,0,0],[0.31,0,0],[0.37,0,0],[0.44,0,0],[0.5,0,0],[0.56,0,0],[0.63,0,0],[0.69,0,0],[0.75,0,0],[0.81,0,0],[0.88,0,0],[0.94,0,0]];labelBackgroundColor=none;rounded=0;html=1;whiteSpace=wrap;" vertex="1" parent="IIEYeDENxH2M8i28GUqi-143">
          <mxGeometry width="1148" height="52.452276064610864" as="geometry" />
        </mxCell>
        <UserObject label="" tags="背景" id="IIEYeDENxH2M8i28GUqi-159">
          <mxCell style="vsdxID=17;fillColor=none;gradientColor=none;points=[];labelBackgroundColor=none;rounded=0;strokeColor=none;html=1;whiteSpace=wrap;" vertex="1" parent="IIEYeDENxH2M8i28GUqi-143">
            <mxGeometry x="820" y="38" width="164" height="853" as="geometry" />
          </mxCell>
        </UserObject>
        <mxCell id="IIEYeDENxH2M8i28GUqi-160" style="vsdxID=18;fillColor=#cce5ff;gradientColor=none;fillOpacity=0;shape=stencil(nZBLDoAgDERP0z3SIyjew0SURgSD+Lu9kMZoXLhwN9O+tukAlrNpJg1SzDH4QW/URgNYgZTkjA4UkwJUgGXng+6DX1zLfmoymdXo17xh5zmRJ6Q42BWCfc2oJfdAr+Yv+AP9Cb7OJ3H/2JG1HNGz/84klThPVCc=);strokeColor=#323232;strokeWidth=2;points=[];labelBackgroundColor=none;rounded=0;html=1;whiteSpace=wrap;" vertex="1" parent="IIEYeDENxH2M8i28GUqi-159">
          <mxGeometry width="164" height="853" as="geometry" />
        </mxCell>
        <mxCell id="IIEYeDENxH2M8i28GUqi-161" value="&lt;div style=&quot;font-size: 1px&quot;&gt;&lt;p style=&quot;text-align:center;margin-left:0;margin-right:0;margin-top:0px;margin-bottom:0px;text-indent:0;vertical-align:middle;direction:ltr;&quot;&gt;&lt;font style=&quot;font-size:13px;font-family:0;color:#323232;direction:ltr;letter-spacing:0px;line-height:120%;opacity:1&quot;&gt;&lt;b&gt;三级项目仓库&lt;/b&gt;&lt;/font&gt;&lt;/p&gt;&lt;/div&gt;" style="verticalAlign=middle;align=center;overflow=width;vsdxID=19;fillColor=#cce5ff;gradientColor=none;shape=stencil(nZBLDoAgDERP0z3SIyjew0SURgSD+Lu9kMZoXLhwN9O+tukAlrNpJg1SzDH4QW/URgNYgZTkjA4UkwJUgGXng+6DX1zLfmoymdXo17xh5zmRJ6Q42BWCfc2oJfdAr+Yv+AP9Cb7OJ3H/2JG1HNGz/84klThPVCc=);strokeColor=#323232;strokeWidth=2;points=[];labelBackgroundColor=none;rounded=0;html=1;whiteSpace=wrap;" vertex="1" parent="IIEYeDENxH2M8i28GUqi-159">
          <mxGeometry width="164" height="39.921996879875195" as="geometry" />
        </mxCell>
        <UserObject label="&lt;div style=&quot;font-size: 1px&quot;&gt;&lt;p style=&quot;text-align:center;margin-left:0;margin-right:0;margin-top:0px;margin-bottom:0px;text-indent:0;vertical-align:middle;direction:ltr;&quot;&gt;&lt;font style=&quot;font-size:13px;font-family:0;color:#323232;direction:ltr;letter-spacing:0px;line-height:120%;opacity:1&quot;&gt;&lt;b&gt;扫QS码移库&lt;/b&gt;&lt;/font&gt;&lt;/p&gt;&lt;/div&gt;" tags="Background" id="IIEYeDENxH2M8i28GUqi-218">
          <mxCell style="verticalAlign=middle;align=center;overflow=width;vsdxID=46;fillColor=#f2f2f2;gradientColor=none;shape=stencil(lZHdCsIwDIWfJrcjJuC8n/M9ButssLajq39vb2sQp4jMu5PkOyGcADeT7UYDhFOK4WAu0icLvAUi8dZESVkBt8DNEKLZx3DyvdZjV8iijuFcNlzVt+KqrouL8KYdfFQ7hZ34OYy4FN2sK+I3+Gn+iuNy9L+Lf8NZvIIZxDnNdT7/DDK39Anc3gE=);strokeColor=#323232;strokeWidth=2;spacingTop=-3;spacingBottom=-3;spacingLeft=-3;spacingRight=-3;points=[];labelBackgroundColor=none;rounded=0;html=1;whiteSpace=wrap;" vertex="1" parent="IIEYeDENxH2M8i28GUqi-159">
            <mxGeometry x="48" y="563" width="87" height="36" as="geometry" />
          </mxCell>
        </UserObject>
        <UserObject label="" tags="Background" id="IIEYeDENxH2M8i28GUqi-146">
          <mxCell style="vsdxID=4;fillColor=#ffffff;gradientColor=none;fillOpacity=0;shape=stencil(nZBLDoAgDERP0z3SIyjew0SURgSD+Lu9kMZoXLhwN9N5bdMClrNpJg1SzDH4QW/URgNYgZTkjA4UkwJUgGXng+6DX1zLfmoymdXo1zxh5z6RO6Q42BWCfc2oJfdAr/AX/IH+BF/rk7hv7MjaZ/L+RirxJ1Gd);strokeColor=#323232;strokeWidth=2;points=[];labelBackgroundColor=none;rounded=0;html=1;whiteSpace=wrap;" vertex="1" parent="1">
            <mxGeometry x="203" y="830" width="1117" height="529" as="geometry" />
          </mxCell>
        </UserObject>
        <UserObject label="" tags="背景" id="IIEYeDENxH2M8i28GUqi-147">
          <mxCell style="vsdxID=5;fillColor=none;gradientColor=none;points=[];labelBackgroundColor=none;rounded=0;strokeColor=none;html=1;whiteSpace=wrap;" vertex="1" parent="1">
            <mxGeometry x="830" y="77" width="162" height="853" as="geometry" />
          </mxCell>
        </UserObject>
        <mxCell id="IIEYeDENxH2M8i28GUqi-148" style="vsdxID=6;fillColor=#cce5ff;gradientColor=none;fillOpacity=0;shape=stencil(nZBLDoAgDERP0z3SIyjew0SURgSD+Lu9kMZoXLhwN9O+tukAlrNpJg1SzDH4QW/URgNYgZTkjA4UkwJUgGXng+6DX1zLfmoymdXo17xh5zmRJ6Q42BWCfc2oJfdAr+Yv+AP9Cb7OJ3H/2JG1HNGz/84klThPVCc=);strokeColor=#323232;strokeWidth=2;points=[];labelBackgroundColor=none;rounded=0;html=1;whiteSpace=wrap;" vertex="1" parent="IIEYeDENxH2M8i28GUqi-147">
          <mxGeometry width="162" height="853" as="geometry" />
        </mxCell>
        <mxCell id="IIEYeDENxH2M8i28GUqi-149" value="&lt;div style=&quot;font-size: 1px&quot;&gt;&lt;p style=&quot;text-align:center;margin-left:0;margin-right:0;margin-top:0px;margin-bottom:0px;text-indent:0;vertical-align:middle;direction:ltr;&quot;&gt;&lt;font style=&quot;font-size:13px;font-family:0;color:#323232;direction:ltr;letter-spacing:0px;line-height:120%;opacity:1&quot;&gt;&lt;b&gt;二级分销仓库&lt;/b&gt;&lt;/font&gt;&lt;/p&gt;&lt;/div&gt;" style="verticalAlign=middle;align=center;overflow=width;vsdxID=7;fillColor=#cce5ff;gradientColor=none;shape=stencil(nZBLDoAgDERP0z3SIyjew0SURgSD+Lu9kMZoXLhwN9O+tukAlrNpJg1SzDH4QW/URgNYgZTkjA4UkwJUgGXng+6DX1zLfmoymdXo17xh5zmRJ6Q42BWCfc2oJfdAr+Yv+AP9Cb7OJ3H/2JG1HNGz/84klThPVCc=);strokeColor=#323232;strokeWidth=2;points=[];labelBackgroundColor=none;rounded=0;html=1;whiteSpace=wrap;" vertex="1" parent="IIEYeDENxH2M8i28GUqi-147">
          <mxGeometry width="162" height="39.921996879875195" as="geometry" />
        </mxCell>
        <UserObject label="" tags="背景" id="IIEYeDENxH2M8i28GUqi-150">
          <mxCell style="vsdxID=8;fillColor=none;gradientColor=none;points=[];labelBackgroundColor=none;rounded=0;strokeColor=none;html=1;whiteSpace=wrap;" vertex="1" parent="1">
            <mxGeometry x="607" y="77" width="223" height="853" as="geometry" />
          </mxCell>
        </UserObject>
        <mxCell id="IIEYeDENxH2M8i28GUqi-151" style="vsdxID=9;fillColor=#cce5ff;gradientColor=none;fillOpacity=0;shape=stencil(nZBLDoAgDERP0z3SIyjew0SURgSD+Lu9kMZoXLhwN9O+tukAlrNpJg1SzDH4QW/URgNYgZTkjA4UkwJUgGXng+6DX1zLfmoymdXo17xh5zmRJ6Q42BWCfc2oJfdAr+Yv+AP9Cb7OJ3H/2JG1HNGz/84klThPVCc=);strokeColor=#323232;strokeWidth=2;points=[];labelBackgroundColor=none;rounded=0;html=1;whiteSpace=wrap;" vertex="1" parent="IIEYeDENxH2M8i28GUqi-150">
          <mxGeometry width="223" height="853" as="geometry" />
        </mxCell>
        <mxCell id="IIEYeDENxH2M8i28GUqi-152" value="&lt;div style=&quot;font-size: 1px&quot;&gt;&lt;p style=&quot;text-align:center;margin-left:0;margin-right:0;margin-top:0px;margin-bottom:0px;text-indent:0;vertical-align:middle;direction:ltr;&quot;&gt;&lt;font style=&quot;font-size:13px;font-family:0;color:#323232;direction:ltr;letter-spacing:0px;line-height:120%;opacity:1&quot;&gt;&lt;b&gt;一级生产仓库&lt;/b&gt;&lt;/font&gt;&lt;/p&gt;&lt;/div&gt;" style="verticalAlign=middle;align=center;overflow=width;vsdxID=10;fillColor=#cce5ff;gradientColor=none;shape=stencil(nZBLDoAgDERP0z3SIyjew0SURgSD+Lu9kMZoXLhwN9O+tukAlrNpJg1SzDH4QW/URgNYgZTkjA4UkwJUgGXng+6DX1zLfmoymdXo17xh5zmRJ6Q42BWCfc2oJfdAr+Yv+AP9Cb7OJ3H/2JG1HNGz/84klThPVCc=);strokeColor=#323232;strokeWidth=2;points=[];labelBackgroundColor=none;rounded=0;html=1;whiteSpace=wrap;" vertex="1" parent="IIEYeDENxH2M8i28GUqi-150">
          <mxGeometry width="223" height="39.921996879875195" as="geometry" />
        </mxCell>
        <UserObject label="" tags="背景" id="IIEYeDENxH2M8i28GUqi-153">
          <mxCell style="vsdxID=11;fillColor=none;gradientColor=none;points=[];labelBackgroundColor=none;rounded=0;strokeColor=none;html=1;whiteSpace=wrap;" vertex="1" parent="1">
            <mxGeometry x="364" y="77" width="243" height="853" as="geometry" />
          </mxCell>
        </UserObject>
        <mxCell id="IIEYeDENxH2M8i28GUqi-154" style="vsdxID=12;fillColor=#cce5ff;gradientColor=none;fillOpacity=0;shape=stencil(nZBLDoAgDERP0z3SIyjew0SURgSD+Lu9kMZoXLhwN9O+tukAlrNpJg1SzDH4QW/URgNYgZTkjA4UkwJUgGXng+6DX1zLfmoymdXo17xh5zmRJ6Q42BWCfc2oJfdAr+Yv+AP9Cb7OJ3H/2JG1HNGz/84klThPVCc=);strokeColor=#323232;strokeWidth=2;points=[];labelBackgroundColor=none;rounded=0;html=1;whiteSpace=wrap;" vertex="1" parent="IIEYeDENxH2M8i28GUqi-153">
          <mxGeometry width="243" height="853" as="geometry" />
        </mxCell>
        <mxCell id="IIEYeDENxH2M8i28GUqi-155" value="&lt;div style=&quot;font-size: 1px&quot;&gt;&lt;p style=&quot;text-align:center;margin-left:0;margin-right:0;margin-top:0px;margin-bottom:0px;text-indent:0;vertical-align:middle;direction:ltr;&quot;&gt;&lt;font style=&quot;font-size:13px;font-family:0;color:#323232;direction:ltr;letter-spacing:0px;line-height:120%;opacity:1&quot;&gt;&lt;b&gt;入库准备&lt;/b&gt;&lt;/font&gt;&lt;/p&gt;&lt;/div&gt;" style="verticalAlign=middle;align=center;overflow=width;vsdxID=13;fillColor=#cce5ff;gradientColor=none;shape=stencil(nZBLDoAgDERP0z3SIyjew0SURgSD+Lu9kMZoXLhwN9O+tukAlrNpJg1SzDH4QW/URgNYgZTkjA4UkwJUgGXng+6DX1zLfmoymdXo17xh5zmRJ6Q42BWCfc2oJfdAr+Yv+AP9Cb7OJ3H/2JG1HNGz/84klThPVCc=);strokeColor=#323232;strokeWidth=2;points=[];labelBackgroundColor=none;rounded=0;html=1;whiteSpace=wrap;" vertex="1" parent="IIEYeDENxH2M8i28GUqi-153">
          <mxGeometry width="243" height="39.921996879875195" as="geometry" />
        </mxCell>
        <UserObject label="" tags="背景" id="IIEYeDENxH2M8i28GUqi-156">
          <mxCell style="vsdxID=14;fillColor=none;gradientColor=none;points=[];labelBackgroundColor=none;rounded=0;strokeColor=none;html=1;whiteSpace=wrap;" vertex="1" parent="1">
            <mxGeometry x="203" y="77" width="161" height="853" as="geometry" />
          </mxCell>
        </UserObject>
        <mxCell id="IIEYeDENxH2M8i28GUqi-157" style="vsdxID=15;fillColor=#cce5ff;gradientColor=none;fillOpacity=0;shape=stencil(nZBLDoAgDERP0z3SIyjew0SURgSD+Lu9kMZoXLhwN9O+tukAlrNpJg1SzDH4QW/URgNYgZTkjA4UkwJUgGXng+6DX1zLfmoymdXo17xh5zmRJ6Q42BWCfc2oJfdAr+Yv+AP9Cb7OJ3H/2JG1HNGz/84klThPVCc=);strokeColor=#323232;strokeWidth=2;points=[];labelBackgroundColor=none;rounded=0;html=1;whiteSpace=wrap;" vertex="1" parent="IIEYeDENxH2M8i28GUqi-156">
          <mxGeometry width="161" height="853" as="geometry" />
        </mxCell>
        <mxCell id="IIEYeDENxH2M8i28GUqi-158" value="&lt;div style=&quot;font-size: 1px&quot;&gt;&lt;p style=&quot;text-align:center;margin-left:0;margin-right:0;margin-top:0px;margin-bottom:0px;text-indent:0;vertical-align:middle;direction:ltr;&quot;&gt;&lt;font style=&quot;font-size:13px;font-family:0;color:#323232;direction:ltr;letter-spacing:0px;line-height:120%;opacity:1&quot;&gt;&lt;b&gt;制造商&lt;/b&gt;&lt;/font&gt;&lt;/p&gt;&lt;/div&gt;" style="verticalAlign=middle;align=center;overflow=width;vsdxID=16;fillColor=#cce5ff;gradientColor=none;shape=stencil(nZBLDoAgDERP0z3SIyjew0SURgSD+Lu9kMZoXLhwN9O+tukAlrNpJg1SzDH4QW/URgNYgZTkjA4UkwJUgGXng+6DX1zLfmoymdXo17xh5zmRJ6Q42BWCfc2oJfdAr+Yv+AP9Cb7OJ3H/2JG1HNGz/84klThPVCc=);strokeColor=#323232;strokeWidth=2;points=[];labelBackgroundColor=none;rounded=0;html=1;whiteSpace=wrap;" vertex="1" parent="IIEYeDENxH2M8i28GUqi-156">
          <mxGeometry width="161" height="39.921996879875195" as="geometry" />
        </mxCell>
        <UserObject label="" tags="背景" id="IIEYeDENxH2M8i28GUqi-162">
          <mxCell style="vsdxID=20;fillColor=none;gradientColor=none;points=[];labelBackgroundColor=none;rounded=0;strokeColor=none;html=1;whiteSpace=wrap;" vertex="1" parent="1">
            <mxGeometry x="1156" y="77" width="164" height="853" as="geometry" />
          </mxCell>
        </UserObject>
        <mxCell id="IIEYeDENxH2M8i28GUqi-163" style="vsdxID=21;fillColor=#cce5ff;gradientColor=none;fillOpacity=0;shape=stencil(nZBLDoAgDERP0z3SIyjew0SURgSD+Lu9kMZoXLhwN9O+tukAlrNpJg1SzDH4QW/URgNYgZTkjA4UkwJUgGXng+6DX1zLfmoymdXo17xh5zmRJ6Q42BWCfc2oJfdAr+Yv+AP9Cb7OJ3H/2JG1HNGz/84klThPVCc=);strokeColor=#323232;strokeWidth=2;points=[];labelBackgroundColor=none;rounded=0;html=1;whiteSpace=wrap;" vertex="1" parent="IIEYeDENxH2M8i28GUqi-162">
          <mxGeometry width="164" height="853" as="geometry" />
        </mxCell>
        <mxCell id="IIEYeDENxH2M8i28GUqi-164" value="&lt;div style=&quot;font-size: 1px&quot;&gt;&lt;font style=&quot;font-size:16.93px;font-family:Calibri;color:#000000;direction:ltr;letter-spacing:0px;line-height:120%;opacity:1&quot;&gt;功能&lt;/font&gt;&lt;/div&gt;" style="verticalAlign=middle;align=center;overflow=width;vsdxID=22;fillColor=#cce5ff;gradientColor=none;shape=stencil(nZBLDoAgDERP0z3SIyjew0SURgSD+Lu9kMZoXLhwN9O+tukAlrNpJg1SzDH4QW/URgNYgZTkjA4UkwJUgGXng+6DX1zLfmoymdXo17xh5zmRJ6Q42BWCfc2oJfdAr+Yv+AP9Cb7OJ3H/2JG1HNGz/84klThPVCc=);strokeColor=#323232;strokeWidth=2;points=[];labelBackgroundColor=none;rounded=0;html=1;whiteSpace=wrap;" vertex="1" parent="IIEYeDENxH2M8i28GUqi-162">
          <mxGeometry width="164" height="39.921996879875195" as="geometry" />
        </mxCell>
        <UserObject label="" tags="Background" id="IIEYeDENxH2M8i28GUqi-165">
          <mxCell style="vsdxID=23;fillColor=#ffffff;gradientColor=none;shape=stencil(nZBLDoAgDERP0z3SIyDew0QUooJB/N1eSGM0LFywm2lf23QAxarbRQFna/BuVIfpggasgXNjtfImRAUoAUXvvBq822xHfmkTmdTs9rThpDmWJji7yFWMfEPoZOwHfZpF8A9aCGbno3h/jCYPIJYoPJQ3);strokeColor=#323232;strokeWidth=2;points=[];labelBackgroundColor=none;rounded=0;html=1;whiteSpace=wrap;" vertex="1" parent="1">
            <mxGeometry x="172" y="718" width="1148" height="611" as="geometry" />
          </mxCell>
        </UserObject>
        <UserObject label="" tags="背景" id="IIEYeDENxH2M8i28GUqi-169">
          <mxCell style="vsdxID=27;fillColor=none;gradientColor=none;points=[];labelBackgroundColor=none;rounded=0;strokeColor=none;html=1;whiteSpace=wrap;" vertex="1" parent="1">
            <mxGeometry x="172" y="521" width="1148" height="94" as="geometry" />
          </mxCell>
        </UserObject>
        <mxCell id="IIEYeDENxH2M8i28GUqi-170" value="&lt;div style=&quot;font-size: 1px&quot;&gt;&lt;/div&gt;" style="verticalAlign=middle;align=center;overflow=width;vsdxID=28;rotation=90;fillColor=#f6edc1;gradientColor=none;fillOpacity=0;shape=stencil(jU9BDoAgDHvN7siegPgPElCIBghg1N/LwkHx5K3d2rUDFNmqaICzXFJYzeF0sYAjcO68NcmVigAloJhDMksKu9eNR0VKQpvzdOFsvoEx8nB29Xz6I+6kFTwhrd979y1UR+0ZlDc=);strokeColor=#323232;strokeWidth=2;points=[];labelBackgroundColor=#ffffff;rounded=0;html=1;whiteSpace=wrap;" vertex="1" parent="IIEYeDENxH2M8i28GUqi-169">
          <mxGeometry width="94" height="1148" as="geometry" />
        </mxCell>
        <mxCell id="IIEYeDENxH2M8i28GUqi-171" value="&lt;div style=&quot;font-size: 1px&quot;&gt;&lt;p style=&quot;text-align:left;margin-left:0;margin-right:0;margin-top:0px;margin-bottom:0px;text-indent:0;vertical-align:middle;direction:ltr;&quot;&gt;&lt;font style=&quot;font-size:15px;font-family:0;color:#000000;direction:ltr;letter-spacing:0px;line-height:120%;opacity:1&quot;&gt;&lt;b&gt;入库&lt;/b&gt;&lt;/font&gt;&lt;/p&gt;&lt;/div&gt;" style="verticalAlign=middle;align=left;overflow=width;vsdxID=29;rotation=270;fillColor=#f6edc1;gradientColor=none;shape=stencil(nZBLDoAgDERP0z3SIyjew0SURgSD+Lu9kMZoXLhwN9O+tukAlrNpJg1SzDH4QW/URgNYgZTkjA4UkwJUgGXng+6DX1zLfmoymdXo17xh5zmRJ6Q42BWCfc2oJfdAr+Yv+AP9Cb7OJ3H/2JG1HNGz/84klThPVCc=);strokeColor=#323232;strokeWidth=2;points=[];labelBackgroundColor=#ffffff;rounded=0;html=1;whiteSpace=wrap;" vertex="1" parent="IIEYeDENxH2M8i28GUqi-169">
          <mxGeometry x="-32" y="31" width="94" height="31" as="geometry" />
        </mxCell>
        <UserObject label="&lt;div style=&quot;font-size: 1px&quot;&gt;&lt;p style=&quot;text-align:center;margin-left:0;margin-right:0;margin-top:0px;margin-bottom:0px;text-indent:0;vertical-align:middle;direction:ltr;&quot;&gt;&lt;font style=&quot;font-size:13px;font-family:0;color:#323232;direction:ltr;letter-spacing:0px;line-height:120%;opacity:1&quot;&gt;&lt;b&gt;开始&lt;/b&gt;&lt;/font&gt;&lt;/p&gt;&lt;/div&gt;" tags="Background" id="IIEYeDENxH2M8i28GUqi-178">
          <mxCell style="verticalAlign=middle;align=center;overflow=width;vsdxID=36;fillColor=#ffff99;gradientColor=none;shape=stencil(hZLbDoIwDIafZpeSrTVErhHfg8iQRWRkDMS3l1mRwzDctd3X9m87hnFTpLVkwBtr9F0+VWYLhmcGoKpCGmUHi2HCMM61kTej2yojv04d6ayH7lyFnvIEDzByWcBfFOEf70JwqaoZfIqCUPyHr62h0mKsjcEx/PJinsB72EB+sRFCvy0umU2Z/kwrfC304OucRIDPwHIW9Nvi7i53Fj8Y08lyVZZ08fn7+sRDiL4HJm8=);strokeColor=#323232;strokeWidth=2;spacingTop=-3;spacingBottom=-3;spacingLeft=-3;spacingRight=-3;points=[];labelBackgroundColor=none;rounded=0;html=1;whiteSpace=wrap;" vertex="1" parent="1">
            <mxGeometry x="236" y="124" width="99" height="31" as="geometry" />
          </mxCell>
        </UserObject>
        <UserObject label="&lt;div style=&quot;font-size: 1px&quot;&gt;&lt;p style=&quot;text-align:center;margin-left:0;margin-right:0;margin-top:0px;margin-bottom:0px;text-indent:0;vertical-align:middle;direction:ltr;&quot;&gt;&lt;font style=&quot;font-size:13px;font-family:0;color:#323232;direction:ltr;letter-spacing:0px;line-height:120%;opacity:1&quot;&gt;&lt;b&gt;下载生产配置文件模板&lt;/b&gt;&lt;/font&gt;&lt;/p&gt;&lt;/div&gt;" tags="Background" id="IIEYeDENxH2M8i28GUqi-179">
          <mxCell style="verticalAlign=middle;align=center;overflow=width;vsdxID=37;fillColor=#f2f2f2;gradientColor=none;shape=stencil(UzV2Ls5ILEhVNTIoLinKz04tz0wpyVA1dlE1MsrMy0gtyiwBslSNXVWNndPyi1LTi/JL81Ig/IJEkEoQKze/DGRCBUSfoYGehTFIl5FBJUTEAMxzgyjOycxDUWxArFILSz1DcxTFMM1YlRsQr5REF+NVDGQgAiYtMycHEq7I8ugBCRSCRIKxKwA=);strokeColor=#323232;strokeWidth=2;spacingTop=-3;spacingBottom=-3;spacingLeft=-3;spacingRight=-3;points=[];labelBackgroundColor=none;rounded=0;html=1;whiteSpace=wrap;" vertex="1" parent="1">
            <mxGeometry x="433" y="194" width="98" height="31" as="geometry" />
          </mxCell>
        </UserObject>
        <UserObject label="&lt;div style=&quot;font-size: 1px&quot;&gt;&lt;p style=&quot;text-align:center;margin-left:0;margin-right:0;margin-top:0px;margin-bottom:0px;text-indent:0;vertical-align:middle;direction:ltr;&quot;&gt;&lt;font style=&quot;font-size:13px;font-family:0;color:#323232;direction:ltr;letter-spacing:0px;line-height:120%;opacity:1&quot;&gt;&lt;b&gt;对集合码和QS码做关联&lt;/b&gt;&lt;/font&gt;&lt;/p&gt;&lt;/div&gt;" tags="Background" id="IIEYeDENxH2M8i28GUqi-180">
          <mxCell style="verticalAlign=middle;align=center;overflow=width;vsdxID=38;fillColor=#f2f2f2;gradientColor=none;shape=stencil(dVLLEoMgDPwajnWAjK+zbf/DqViZWrGorf37ykRUGHrLhs1uEkKgGJqyF4TTYdTqIT6yGhsCZ8K57Bqh5bhEBC4Eilppcddq6irEfWmYJnqqt1GYsY6aCk6/iGKEV2TeJo1U5nJXeGJJlKSYmznmGLUkHiCBT4KQ7Wsqq4Nrnrm2FlvL2HO06mE1gAjAFdza2YbYW7aiuaPZyu7vCj17l8pYlDrsLF4T4W69jadeo97k7hqXYP/0WrYt3szx3T+SJYUHBpcf);dashed=1;strokeColor=#323232;strokeWidth=2;spacingTop=-3;spacingBottom=-3;spacingLeft=-3;spacingRight=-3;points=[];labelBackgroundColor=none;rounded=0;html=1;whiteSpace=wrap;" vertex="1" parent="1">
            <mxGeometry x="479" y="370" width="108" height="49" as="geometry" />
          </mxCell>
        </UserObject>
        <UserObject label="&lt;div style=&quot;font-size: 1px&quot;&gt;&lt;p style=&quot;text-align:center;margin-left:0;margin-right:0;margin-top:0px;margin-bottom:0px;text-indent:0;vertical-align:middle;direction:ltr;&quot;&gt;&lt;font style=&quot;font-size:13px;font-family:0;color:#323232;direction:ltr;letter-spacing:0px;line-height:120%;opacity:1&quot;&gt;&lt;b&gt;要选择制造商和品牌&lt;/b&gt;&lt;/font&gt;&lt;/p&gt;&lt;/div&gt;" tags="Background" id="IIEYeDENxH2M8i28GUqi-181">
          <mxCell style="verticalAlign=middle;align=center;overflow=width;vsdxID=39;fillColor=#f2f2f2;gradientColor=none;shape=stencil(dVLLEoMgDPwajnWAjK+zbf/DqViZWrGorf37ykRUGHrLhs1uEkKgGJqyF4TTYdTqIT6yGhsCZ8K57Bqh5bhEBC4Eilppcddq6irEfWmYJnqqt1GYsY6aCk6/iGKEV2TeJo1U5nJXeGJJlKSYmznmGLUkHiCBT4KQ7Wsqq4Nrnrm2FlvL2HO06mE1gAjAFdza2YbYW7aiuaPZyu7vCj17l8pYlDrsLF4T4W69jadeo97k7hqXYP/0WrYt3szx3T+SJYUHBpcf);dashed=1;strokeColor=#323232;strokeWidth=2;spacingTop=-3;spacingBottom=-3;spacingLeft=-3;spacingRight=-3;points=[];labelBackgroundColor=none;rounded=0;html=1;whiteSpace=wrap;" vertex="1" parent="1">
            <mxGeometry x="485" y="146" width="108" height="49" as="geometry" />
          </mxCell>
        </UserObject>
        <UserObject label="&lt;div style=&quot;font-size: 1px&quot;&gt;&lt;p style=&quot;text-align:center;margin-left:0;margin-right:0;margin-top:0px;margin-bottom:0px;text-indent:0;vertical-align:middle;direction:ltr;&quot;&gt;&lt;font style=&quot;font-size:13px;font-family:0;color:#323232;direction:ltr;letter-spacing:0px;line-height:120%;opacity:1&quot;&gt;&lt;b&gt;填写通用属性，扩展属性，QS码&lt;/b&gt;&lt;/font&gt;&lt;/p&gt;&lt;/div&gt;" tags="Background" id="IIEYeDENxH2M8i28GUqi-182">
          <mxCell style="verticalAlign=middle;align=center;overflow=width;vsdxID=40;fillColor=#f2f2f2;gradientColor=none;shape=stencil(nZBRDoQgDERP03+WHsHFe5iISyOCQdT19kIaIxq//Jtp3zTpAFaTaUYNUkwx+F6v1EYD+AUpyRkdKCYFqACrzgf9C352LfuxyWRWg1/yhT/nRE5IsZWuZtCSK8CPeI0e/hF+jV7AJM4PO7KWCyr390bSiNtEtQM=);strokeColor=#323232;strokeWidth=2;spacingTop=-3;spacingBottom=-3;spacingLeft=-3;spacingRight=-3;points=[];labelBackgroundColor=none;rounded=0;html=1;whiteSpace=wrap;" vertex="1" parent="1">
            <mxGeometry x="223" y="259" width="118" height="32" as="geometry" />
          </mxCell>
        </UserObject>
        <UserObject label="&lt;div style=&quot;font-size: 1px&quot;&gt;&lt;p style=&quot;text-align:center;margin-left:0;margin-right:0;margin-top:0px;margin-bottom:0px;text-indent:0;vertical-align:middle;direction:ltr;&quot;&gt;&lt;font style=&quot;font-size:13px;font-family:0;color:#323232;direction:ltr;letter-spacing:0px;line-height:120%;opacity:1&quot;&gt;&lt;b&gt;导入生产配置文件&lt;/b&gt;&lt;/font&gt;&lt;/p&gt;&lt;/div&gt;" tags="Background" id="IIEYeDENxH2M8i28GUqi-183">
          <mxCell style="verticalAlign=middle;align=center;overflow=width;vsdxID=41;fillColor=#f2f2f2;gradientColor=none;shape=stencil(lZHdCsIwDIWfJrcjJuC8n/M9ButssLajq39vb2sQp4jMu5PkOyGcADeT7UYDhFOK4WAu0icLvAUi8dZESVkBt8DNEKLZx3DyvdZjV8iijuFcNlzVt+KqrouL8KYdfFQ7hZ34OYy4FN2sK+I3+Gn+iuNy9L+Lf8NZvIIZxDnNdT7/DDK39Anc3gE=);strokeColor=#323232;strokeWidth=2;spacingTop=-3;spacingBottom=-3;spacingLeft=-3;spacingRight=-3;points=[];labelBackgroundColor=none;rounded=0;html=1;whiteSpace=wrap;" vertex="1" parent="1">
            <mxGeometry x="427" y="295" width="87" height="36" as="geometry" />
          </mxCell>
        </UserObject>
        <UserObject label="&lt;div style=&quot;font-size: 1px&quot;&gt;&lt;p style=&quot;text-align:center;margin-left:0;margin-right:0;margin-top:0px;margin-bottom:0px;text-indent:0;vertical-align:middle;direction:ltr;&quot;&gt;&lt;font style=&quot;font-size:13px;font-family:0;color:#323232;direction:ltr;letter-spacing:0px;line-height:120%;opacity:1&quot;&gt;&lt;b&gt;生产产品及镭雕QS码&lt;/b&gt;&lt;/font&gt;&lt;/p&gt;&lt;/div&gt;" tags="Background" id="IIEYeDENxH2M8i28GUqi-184">
          <mxCell style="verticalAlign=middle;align=center;overflow=width;vsdxID=42;fillColor=#f2f2f2;gradientColor=none;shape=stencil(nZBRDoQgDERP03+WHsHFe5iISyOCQdT19kIaIxq//Jtp3zTpAFaTaUYNUkwx+F6v1EYD+AUpyRkdKCYFqACrzgf9C352LfuxyWRWg1/yhT/nRE5IsZWuZtCSK8CPeI0e/hF+jV7AJM4PO7KWCyr390bSiNtEtQM=);strokeColor=#323232;strokeWidth=2;spacingTop=-3;spacingBottom=-3;spacingLeft=-3;spacingRight=-3;points=[];labelBackgroundColor=none;rounded=0;html=1;whiteSpace=wrap;" vertex="1" parent="1">
            <mxGeometry x="234" y="377" width="94" height="36" as="geometry" />
          </mxCell>
        </UserObject>
        <UserObject label="&lt;div style=&quot;font-size: 1px&quot;&gt;&lt;p style=&quot;text-align:center;margin-left:0;margin-right:0;margin-top:0px;margin-bottom:0px;text-indent:0;vertical-align:middle;direction:ltr;&quot;&gt;&lt;font style=&quot;font-size:13px;font-family:0;color:#323232;direction:ltr;letter-spacing:0px;line-height:120%;opacity:1&quot;&gt;&lt;b&gt;扫码装箱&lt;/b&gt;&lt;/font&gt;&lt;/p&gt;&lt;/div&gt;" tags="Background" id="IIEYeDENxH2M8i28GUqi-185">
          <mxCell style="verticalAlign=middle;align=center;overflow=width;vsdxID=43;fillColor=#f2f2f2;gradientColor=none;shape=stencil(lZHdCsIwDIWfJrcjJuC8n/M9ButssLajq39vb2sQp4jMu5PkOyGcADeT7UYDhFOK4WAu0icLvAUi8dZESVkBt8DNEKLZx3DyvdZjV8iijuFcNlzVt+KqrouL8KYdfFQ7hZ34OYy4FN2sK+I3+Gn+iuNy9L+Lf8NZvIIZxDnNdT7/DDK39Anc3gE=);strokeColor=#323232;strokeWidth=2;spacingTop=-3;spacingBottom=-3;spacingLeft=-3;spacingRight=-3;points=[];labelBackgroundColor=none;rounded=0;html=1;whiteSpace=wrap;" vertex="1" parent="1">
            <mxGeometry x="416" y="423" width="87" height="36" as="geometry" />
          </mxCell>
        </UserObject>
        <UserObject label="&lt;div style=&quot;font-size: 1px&quot;&gt;&lt;p style=&quot;text-align:center;margin-left:0;margin-right:0;margin-top:0px;margin-bottom:0px;text-indent:0;vertical-align:middle;direction:ltr;&quot;&gt;&lt;font style=&quot;font-size:13px;font-family:0;color:#323232;direction:ltr;letter-spacing:0px;line-height:120%;opacity:1&quot;&gt;&lt;b&gt;发货&lt;/b&gt;&lt;/font&gt;&lt;/p&gt;&lt;/div&gt;" tags="Background" id="IIEYeDENxH2M8i28GUqi-186">
          <mxCell style="verticalAlign=middle;align=center;overflow=width;vsdxID=44;fillColor=#f2f2f2;gradientColor=none;shape=stencil(nZBRDoQgDERP03+WHsHFe5iISyOCQdT19kIaIxq//Jtp3zTpAFaTaUYNUkwx+F6v1EYD+AUpyRkdKCYFqACrzgf9C352LfuxyWRWg1/yhT/nRE5IsZWuZtCSK8CPeI0e/hF+jV7AJM4PO7KWCyr390bSiNtEtQM=);strokeColor=#323232;strokeWidth=2;spacingTop=-3;spacingBottom=-3;spacingLeft=-3;spacingRight=-3;points=[];labelBackgroundColor=none;rounded=0;html=1;whiteSpace=wrap;" vertex="1" parent="1">
            <mxGeometry x="234" y="466" width="94" height="36" as="geometry" />
          </mxCell>
        </UserObject>
        <UserObject label="&lt;div style=&quot;font-size: 1px&quot;&gt;&lt;p style=&quot;text-align:center;margin-left:0;margin-right:0;margin-top:0px;margin-bottom:0px;text-indent:0;vertical-align:middle;direction:ltr;&quot;&gt;&lt;font style=&quot;font-size:13px;font-family:0;color:#323232;direction:ltr;letter-spacing:0px;line-height:120%;opacity:1&quot;&gt;&lt;b&gt;扫集合码入库&lt;/b&gt;&lt;/font&gt;&lt;/p&gt;&lt;/div&gt;" tags="Background" id="IIEYeDENxH2M8i28GUqi-187">
          <mxCell style="verticalAlign=middle;align=center;overflow=width;vsdxID=45;fillColor=#f2f2f2;gradientColor=none;shape=stencil(lZHdCsIwDIWfJrcjJuC8n/M9ButssLajq39vb2sQp4jMu5PkOyGcADeT7UYDhFOK4WAu0icLvAUi8dZESVkBt8DNEKLZx3DyvdZjV8iijuFcNlzVt+KqrouL8KYdfFQ7hZ34OYy4FN2sK+I3+Gn+iuNy9L+Lf8NZvIIZxDnNdT7/DDK39Anc3gE=);strokeColor=#323232;strokeWidth=2;spacingTop=-3;spacingBottom=-3;spacingLeft=-3;spacingRight=-3;points=[];labelBackgroundColor=none;rounded=0;html=1;whiteSpace=wrap;" vertex="1" parent="1">
            <mxGeometry x="643" y="547" width="87" height="36" as="geometry" />
          </mxCell>
        </UserObject>
        <mxCell id="IIEYeDENxH2M8i28GUqi-221" style="edgeStyle=orthogonalEdgeStyle;rounded=0;orthogonalLoop=1;jettySize=auto;html=1;" edge="1" parent="1" source="IIEYeDENxH2M8i28GUqi-188" target="IIEYeDENxH2M8i28GUqi-218">
          <mxGeometry relative="1" as="geometry" />
        </mxCell>
        <UserObject label="&lt;div style=&quot;font-size: 1px&quot;&gt;&lt;p style=&quot;text-align:center;margin-left:0;margin-right:0;margin-top:0px;margin-bottom:0px;text-indent:0;vertical-align:middle;direction:ltr;&quot;&gt;&lt;font style=&quot;font-size:13px;font-family:0;color:#323232;direction:ltr;letter-spacing:0px;line-height:120%;opacity:1&quot;&gt;&lt;b&gt;扫QS码移库&lt;/b&gt;&lt;/font&gt;&lt;/p&gt;&lt;/div&gt;" tags="Background" id="IIEYeDENxH2M8i28GUqi-188">
          <mxCell style="verticalAlign=middle;align=center;overflow=width;vsdxID=46;fillColor=#f2f2f2;gradientColor=none;shape=stencil(lZHdCsIwDIWfJrcjJuC8n/M9ButssLajq39vb2sQp4jMu5PkOyGcADeT7UYDhFOK4WAu0icLvAUi8dZESVkBt8DNEKLZx3DyvdZjV8iijuFcNlzVt+KqrouL8KYdfFQ7hZ34OYy4FN2sK+I3+Gn+iuNy9L+Lf8NZvIIZxDnNdT7/DDK39Anc3gE=);strokeColor=#323232;strokeWidth=2;spacingTop=-3;spacingBottom=-3;spacingLeft=-3;spacingRight=-3;points=[];labelBackgroundColor=none;rounded=0;html=1;whiteSpace=wrap;" vertex="1" parent="1">
            <mxGeometry x="860" y="642" width="87" height="36" as="geometry" />
          </mxCell>
        </UserObject>
        <UserObject label="" tags="Background" id="IIEYeDENxH2M8i28GUqi-189">
          <mxCell style="vsdxID=47;edgeStyle=none;startArrow=none;endArrow=block;startSize=5;endSize=5;strokeWidth=2;strokeColor=#323232;spacingTop=0;spacingBottom=0;spacingLeft=0;spacingRight=0;verticalAlign=middle;html=1;labelBackgroundColor=#ffffff;rounded=0;exitX=0.5;exitY=1;exitDx=0;exitDy=0;exitPerimeter=0;entryX=0.5106382978723404;entryY=0;entryDx=0;entryDy=0;entryPerimeter=0;" edge="1" parent="1" source="IIEYeDENxH2M8i28GUqi-182" target="IIEYeDENxH2M8i28GUqi-184">
            <mxGeometry relative="1" as="geometry">
              <mxPoint y="144" as="offset" />
              <Array as="points" />
            </mxGeometry>
          </mxCell>
        </UserObject>
        <UserObject label="" tags="Background" id="IIEYeDENxH2M8i28GUqi-190">
          <mxCell style="vsdxID=48;edgeStyle=none;startArrow=none;endArrow=block;startSize=5;endSize=5;strokeWidth=2;strokeColor=#323232;spacingTop=0;spacingBottom=0;spacingLeft=0;spacingRight=0;verticalAlign=middle;html=1;labelBackgroundColor=#ffffff;rounded=0;exitX=0.06896551724137931;exitY=0.5;exitDx=0;exitDy=0;exitPerimeter=0;entryX=1.0106382978723405;entryY=0.5;entryDx=0;entryDy=0;entryPerimeter=0;" edge="1" parent="1" source="IIEYeDENxH2M8i28GUqi-185" target="IIEYeDENxH2M8i28GUqi-186">
            <mxGeometry relative="1" as="geometry">
              <mxPoint x="46" y="123" as="offset" />
              <Array as="points">
                <mxPoint x="375.41" y="441" />
                <mxPoint x="375.41" y="484" />
              </Array>
            </mxGeometry>
          </mxCell>
        </UserObject>
        <UserObject label="" tags="Background" id="IIEYeDENxH2M8i28GUqi-191">
          <mxCell style="vsdxID=49;edgeStyle=none;startArrow=none;endArrow=block;startSize=5;endSize=5;strokeWidth=2;strokeColor=#323232;spacingTop=0;spacingBottom=0;spacingLeft=0;spacingRight=0;verticalAlign=middle;html=1;labelBackgroundColor=#ffffff;rounded=0;exitX=0.05102040816326531;exitY=0.5161290322580645;exitDx=0;exitDy=0;exitPerimeter=0;entryX=1;entryY=0.5;entryDx=0;entryDy=0;entryPerimeter=0;" edge="1" parent="1" source="IIEYeDENxH2M8i28GUqi-179" target="IIEYeDENxH2M8i28GUqi-182">
            <mxGeometry relative="1" as="geometry">
              <mxPoint x="48" y="134" as="offset" />
              <Array as="points">
                <mxPoint x="389.25" y="210" />
                <mxPoint x="389.25" y="275" />
              </Array>
            </mxGeometry>
          </mxCell>
        </UserObject>
        <UserObject label="" tags="Background" id="IIEYeDENxH2M8i28GUqi-192">
          <mxCell style="vsdxID=50;edgeStyle=none;startArrow=none;endArrow=block;startSize=5;endSize=5;strokeWidth=2;strokeColor=#323232;spacingTop=0;spacingBottom=0;spacingLeft=0;spacingRight=0;verticalAlign=middle;html=1;labelBackgroundColor=#ffffff;rounded=0;exitX=1;exitY=0.4838709677419355;exitDx=0;exitDy=0;exitPerimeter=0;entryX=0.05102040816326531;entryY=0.5161290322580645;entryDx=0;entryDy=0;entryPerimeter=0;" edge="1" parent="1" source="IIEYeDENxH2M8i28GUqi-178" target="IIEYeDENxH2M8i28GUqi-179">
            <mxGeometry relative="1" as="geometry">
              <mxPoint x="-52" y="136" as="offset" />
              <Array as="points">
                <mxPoint x="386.5" y="139" />
                <mxPoint x="386.5" y="209.42" />
              </Array>
            </mxGeometry>
          </mxCell>
        </UserObject>
        <UserObject label="" tags="Background" id="IIEYeDENxH2M8i28GUqi-193">
          <mxCell style="vsdxID=51;edgeStyle=none;startArrow=none;endArrow=block;startSize=5;endSize=5;strokeWidth=2;strokeColor=#323232;spacingTop=0;spacingBottom=0;spacingLeft=0;spacingRight=0;verticalAlign=middle;html=1;labelBackgroundColor=#ffffff;rounded=0;exitX=1.0106382978723405;exitY=0.5;exitDx=0;exitDy=0;exitPerimeter=0;entryX=0.06896551724137931;entryY=0.5;entryDx=0;entryDy=0;entryPerimeter=0;" edge="1" parent="1" source="IIEYeDENxH2M8i28GUqi-186" target="IIEYeDENxH2M8i28GUqi-187">
            <mxGeometry relative="1" as="geometry">
              <mxPoint x="-161" y="141" as="offset" />
              <Array as="points">
                <mxPoint x="489.09" y="484" />
                <mxPoint x="489.09" y="565.17" />
              </Array>
            </mxGeometry>
          </mxCell>
        </UserObject>
        <UserObject label="" tags="Background" id="IIEYeDENxH2M8i28GUqi-194">
          <mxCell style="vsdxID=52;edgeStyle=none;startArrow=none;endArrow=block;startSize=5;endSize=5;strokeWidth=2;strokeColor=#323232;spacingTop=0;spacingBottom=0;spacingLeft=0;spacingRight=0;verticalAlign=middle;html=1;labelBackgroundColor=#ffffff;rounded=0;exitX=1.0106382978723405;exitY=0.5;exitDx=0;exitDy=0;exitPerimeter=0;entryX=0.06896551724137931;entryY=0.5;entryDx=0;entryDy=0;entryPerimeter=0;" edge="1" parent="1" source="IIEYeDENxH2M8i28GUqi-184" target="IIEYeDENxH2M8i28GUqi-185">
            <mxGeometry relative="1" as="geometry">
              <mxPoint x="-47" y="124" as="offset" />
              <Array as="points">
                <mxPoint x="375.59" y="395" />
                <mxPoint x="375.59" y="441.33" />
              </Array>
            </mxGeometry>
          </mxCell>
        </UserObject>
        <UserObject label="" tags="Background" id="IIEYeDENxH2M8i28GUqi-195">
          <mxCell style="vsdxID=53;edgeStyle=none;startArrow=none;endArrow=block;startSize=5;endSize=5;strokeWidth=2;strokeColor=#323232;spacingTop=0;spacingBottom=0;spacingLeft=0;spacingRight=0;verticalAlign=middle;html=1;labelBackgroundColor=#ffffff;rounded=0;exitX=0.9310344827586207;exitY=0.5;exitDx=0;exitDy=0;exitPerimeter=0;entryX=0.06896551724137931;entryY=0.5;entryDx=0;entryDy=0;entryPerimeter=0;" edge="1" parent="1" source="IIEYeDENxH2M8i28GUqi-187" target="IIEYeDENxH2M8i28GUqi-188">
            <mxGeometry relative="1" as="geometry">
              <mxPoint x="-71" y="149" as="offset" />
              <Array as="points">
                <mxPoint x="794.94" y="565" />
                <mxPoint x="794.94" y="660" />
              </Array>
            </mxGeometry>
          </mxCell>
        </UserObject>
        <UserObject label="" tags="Background" id="IIEYeDENxH2M8i28GUqi-196">
          <mxCell style="vsdxID=54;edgeStyle=none;startArrow=none;endArrow=block;startSize=5;endSize=5;strokeWidth=2;strokeColor=#323232;spacingTop=0;spacingBottom=0;spacingLeft=0;spacingRight=0;verticalAlign=middle;html=1;labelBackgroundColor=#ffffff;rounded=0;exitX=1;exitY=0.5;exitDx=0;exitDy=0;exitPerimeter=0;entryX=0.06896551724137931;entryY=0.5;entryDx=0;entryDy=0;entryPerimeter=0;" edge="1" parent="1" source="IIEYeDENxH2M8i28GUqi-182" target="IIEYeDENxH2M8i28GUqi-183">
            <mxGeometry relative="1" as="geometry">
              <mxPoint x="-47" y="121" as="offset" />
              <Array as="points">
                <mxPoint x="387.19" y="275" />
                <mxPoint x="387.19" y="313.25" />
              </Array>
            </mxGeometry>
          </mxCell>
        </UserObject>
        <mxCell id="IIEYeDENxH2M8i28GUqi-176" value="&lt;div style=&quot;font-size: 1px&quot;&gt;&lt;/div&gt;" style="verticalAlign=middle;align=center;overflow=width;vsdxID=34;rotation=90;fillColor=#f6edc1;gradientColor=none;fillOpacity=0;shape=stencil(jU9BDoAgDHvN7siegPgPElCIBghg1N/LwkHx5K3d2rUDFNmqaICzXFJYzeF0sYAjcO68NcmVigAloJhDMksKu9eNR0VKQpvzdOFsvoEx8nB29Xz6I+6kFTwhrd979y1UR+0ZlDc=);strokeColor=#323232;strokeWidth=2;points=[];labelBackgroundColor=#ffffff;rounded=0;html=1;whiteSpace=wrap;" vertex="1" parent="1">
          <mxGeometry x="172" y="356" width="170" height="1148" as="geometry" />
        </mxCell>
        <mxCell id="IIEYeDENxH2M8i28GUqi-177" value="&lt;div style=&quot;font-size: 1px&quot;&gt;&lt;p style=&quot;text-align:left;margin-left:0;margin-right:0;margin-top:0px;margin-bottom:0px;text-indent:0;vertical-align:middle;direction:ltr;&quot;&gt;&lt;font style=&quot;font-size:15px;font-family:0;color:#000000;direction:ltr;letter-spacing:0px;line-height:120%;opacity:1&quot;&gt;&lt;b&gt;扫码装箱&lt;/b&gt;&lt;/font&gt;&lt;/p&gt;&lt;/div&gt;" style="verticalAlign=middle;align=left;overflow=width;vsdxID=35;rotation=270;fillColor=#f6edc1;gradientColor=none;shape=stencil(nZBLDoAgDERP0z3SIyjew0SURgSD+Lu9kMZoXLhwN9O+tukAlrNpJg1SzDH4QW/URgNYgZTkjA4UkwJUgGXng+6DX1zLfmoymdXo17xh5zmRJ6Q42BWCfc2oJfdAr+Yv+AP9Cb7OJ3H/2JG1HNGz/84klThPVCc=);strokeColor=#323232;strokeWidth=2;points=[];labelBackgroundColor=#ffffff;rounded=0;html=1;whiteSpace=wrap;" vertex="1" parent="1">
          <mxGeometry x="102" y="425" width="170" height="31" as="geometry" />
        </mxCell>
        <UserObject label="" tags="背景" id="IIEYeDENxH2M8i28GUqi-208">
          <mxCell style="vsdxID=24;fillColor=none;gradientColor=none;points=[];labelBackgroundColor=none;rounded=0;strokeColor=none;html=1;whiteSpace=wrap;" vertex="1" parent="1">
            <mxGeometry x="172" y="825" width="1346" height="103" as="geometry" />
          </mxCell>
        </UserObject>
        <mxCell id="IIEYeDENxH2M8i28GUqi-209" value="&lt;div style=&quot;font-size: 1px&quot;&gt;&lt;/div&gt;" style="verticalAlign=middle;align=center;overflow=width;vsdxID=25;rotation=90;fillColor=#f6edc1;gradientColor=none;fillOpacity=0;shape=stencil(jU9BDoAgDHvN7siegPgPElCIBghg1N/LwkHx5K3d2rUDFNmqaICzXFJYzeF0sYAjcO68NcmVigAloJhDMksKu9eNR0VKQpvzdOFsvoEx8nB29Xz6I+6kFTwhrd979y1UR+0ZlDc=);strokeColor=#323232;strokeWidth=2;points=[];labelBackgroundColor=#ffffff;rounded=0;html=1;whiteSpace=wrap;" vertex="1" parent="IIEYeDENxH2M8i28GUqi-208">
          <mxGeometry width="103" height="1148" as="geometry" />
        </mxCell>
        <mxCell id="IIEYeDENxH2M8i28GUqi-210" value="&lt;div style=&quot;font-size: 1px&quot;&gt;&lt;p style=&quot;text-align:left;margin-left:0;margin-right:0;margin-top:0px;margin-bottom:0px;text-indent:0;vertical-align:middle;direction:ltr;&quot;&gt;&lt;font style=&quot;font-size:15px;font-family:0;color:#000000;direction:ltr;letter-spacing:0px;line-height:120%;opacity:1&quot;&gt;&lt;s&gt;&lt;b&gt;出库&lt;/b&gt;&lt;/s&gt;&lt;/font&gt;&lt;/p&gt;&lt;/div&gt;" style="verticalAlign=middle;align=left;overflow=width;vsdxID=26;rotation=270;fillColor=#f6edc1;gradientColor=none;shape=stencil(nZBLDoAgDERP0z3SIyjew0SURgSD+Lu9kMZoXLhwN9O+tukAlrNpJg1SzDH4QW/URgNYgZTkjA4UkwJUgGXng+6DX1zLfmoymdXo17xh5zmRJ6Q42BWCfc2oJfdAr+Yv+AP9Cb7OJ3H/2JG1HNGz/84klThPVCc=);strokeColor=#323232;strokeWidth=2;points=[];labelBackgroundColor=#ffffff;rounded=0;html=1;whiteSpace=wrap;" vertex="1" parent="IIEYeDENxH2M8i28GUqi-208">
          <mxGeometry x="-36" y="36" width="103" height="31" as="geometry" />
        </mxCell>
        <UserObject label="&lt;div style=&quot;font-size: 1px&quot;&gt;&lt;p style=&quot;text-align:center;margin-left:0;margin-right:0;margin-top:0px;margin-bottom:0px;text-indent:0;vertical-align:middle;direction:ltr;&quot;&gt;&lt;font style=&quot;font-size:13px;font-family:0;color:#323232;direction:ltr;letter-spacing:0px;line-height:120%;opacity:1&quot;&gt;&lt;b&gt;扫QS码出库&lt;/b&gt;&lt;/font&gt;&lt;/p&gt;&lt;/div&gt;" tags="Background" id="IIEYeDENxH2M8i28GUqi-217">
          <mxCell style="verticalAlign=middle;align=center;overflow=width;vsdxID=46;fillColor=#f2f2f2;gradientColor=none;shape=stencil(lZHdCsIwDIWfJrcjJuC8n/M9ButssLajq39vb2sQp4jMu5PkOyGcADeT7UYDhFOK4WAu0icLvAUi8dZESVkBt8DNEKLZx3DyvdZjV8iijuFcNlzVt+KqrouL8KYdfFQ7hZ34OYy4FN2sK+I3+Gn+iuNy9L+Lf8NZvIIZxDnNdT7/DDK39Anc3gE=);strokeColor=#323232;strokeWidth=2;spacingTop=-3;spacingBottom=-3;spacingLeft=-3;spacingRight=-3;points=[];labelBackgroundColor=none;rounded=0;html=1;whiteSpace=wrap;" vertex="1" parent="IIEYeDENxH2M8i28GUqi-208">
            <mxGeometry x="865" y="25" width="87" height="36" as="geometry" />
          </mxCell>
        </UserObject>
        <mxCell id="IIEYeDENxH2M8i28GUqi-173" value="&lt;div style=&quot;font-size: 1px&quot;&gt;&lt;/div&gt;" style="verticalAlign=middle;align=center;overflow=width;vsdxID=31;rotation=90;fillColor=#f6edc1;gradientColor=none;fillOpacity=0;shape=stencil(jU9BDoAgDHvN7siegPgPElCIBghg1N/LwkHx5K3d2rUDFNmqaICzXFJYzeF0sYAjcO68NcmVigAloJhDMksKu9eNR0VKQpvzdOFsvoEx8nB29Xz6I+6kFTwhrd979y1UR+0ZlDc=);strokeColor=#323232;strokeWidth=2;points=[];labelBackgroundColor=#ffffff;rounded=0;html=1;whiteSpace=wrap;" vertex="1" parent="1">
          <mxGeometry x="172" y="107" width="244" height="1148" as="geometry" />
        </mxCell>
        <mxCell id="IIEYeDENxH2M8i28GUqi-174" value="&lt;div style=&quot;font-size: 1px&quot;&gt;&lt;p style=&quot;text-align:left;margin-left:0;margin-right:0;margin-top:0px;margin-bottom:0px;text-indent:0;vertical-align:middle;direction:ltr;&quot;&gt;&lt;font style=&quot;font-size:15px;font-family:0;color:#000000;direction:ltr;letter-spacing:0px;line-height:120%;opacity:1&quot;&gt;&lt;b&gt;生产配置导入&lt;/b&gt;&lt;/font&gt;&lt;/p&gt;&lt;/div&gt;" style="verticalAlign=middle;align=left;overflow=width;vsdxID=32;rotation=270;fillColor=#f6edc1;gradientColor=none;shape=stencil(nZBLDoAgDERP0z3SIyjew0SURgSD+Lu9kMZoXLhwN9O+tukAlrNpJg1SzDH4QW/URgNYgZTkjA4UkwJUgGXng+6DX1zLfmoymdXo17xh5zmRJ6Q42BWCfc2oJfdAr+Yv+AP9Cb7OJ3H/2JG1HNGz/84klThPVCc=);strokeColor=#323232;strokeWidth=2;points=[];labelBackgroundColor=#ffffff;rounded=0;html=1;whiteSpace=wrap;" vertex="1" parent="1">
          <mxGeometry x="50" y="198" width="274" height="31" as="geometry" />
        </mxCell>
        <UserObject label="" tags="背景" id="IIEYeDENxH2M8i28GUqi-205">
          <mxCell style="vsdxID=24;fillColor=none;gradientColor=none;points=[];labelBackgroundColor=none;rounded=0;strokeColor=none;html=1;whiteSpace=wrap;" vertex="1" parent="1">
            <mxGeometry x="172" y="720" width="1148" height="103" as="geometry" />
          </mxCell>
        </UserObject>
        <mxCell id="IIEYeDENxH2M8i28GUqi-206" value="&lt;div style=&quot;font-size: 1px&quot;&gt;&lt;/div&gt;" style="verticalAlign=middle;align=center;overflow=width;vsdxID=25;rotation=90;fillColor=#f6edc1;gradientColor=none;fillOpacity=0;shape=stencil(jU9BDoAgDHvN7siegPgPElCIBghg1N/LwkHx5K3d2rUDFNmqaICzXFJYzeF0sYAjcO68NcmVigAloJhDMksKu9eNR0VKQpvzdOFsvoEx8nB29Xz6I+6kFTwhrd979y1UR+0ZlDc=);strokeColor=#323232;strokeWidth=2;points=[];labelBackgroundColor=#ffffff;rounded=0;html=1;whiteSpace=wrap;" vertex="1" parent="IIEYeDENxH2M8i28GUqi-205">
          <mxGeometry width="103" height="1148" as="geometry" />
        </mxCell>
        <mxCell id="IIEYeDENxH2M8i28GUqi-207" value="&lt;div style=&quot;font-size: 1px&quot;&gt;&lt;p style=&quot;text-align:left;margin-left:0;margin-right:0;margin-top:0px;margin-bottom:0px;text-indent:0;vertical-align:middle;direction:ltr;&quot;&gt;&lt;font style=&quot;font-size:15px;font-family:0;color:#000000;direction:ltr;letter-spacing:0px;line-height:120%;opacity:1&quot;&gt;&lt;s&gt;&lt;b&gt;退库&lt;/b&gt;&lt;/s&gt;&lt;/font&gt;&lt;/p&gt;&lt;/div&gt;" style="verticalAlign=middle;align=left;overflow=width;vsdxID=26;rotation=270;fillColor=#f6edc1;gradientColor=none;shape=stencil(nZBLDoAgDERP0z3SIyjew0SURgSD+Lu9kMZoXLhwN9O+tukAlrNpJg1SzDH4QW/URgNYgZTkjA4UkwJUgGXng+6DX1zLfmoymdXo17xh5zmRJ6Q42BWCfc2oJfdAr+Yv+AP9Cb7OJ3H/2JG1HNGz/84klThPVCc=);strokeColor=#323232;strokeWidth=2;points=[];labelBackgroundColor=#ffffff;rounded=0;html=1;whiteSpace=wrap;" vertex="1" parent="IIEYeDENxH2M8i28GUqi-205">
          <mxGeometry x="-36" y="36" width="103" height="31" as="geometry" />
        </mxCell>
        <mxCell id="IIEYeDENxH2M8i28GUqi-228" style="edgeStyle=orthogonalEdgeStyle;rounded=0;orthogonalLoop=1;jettySize=auto;html=1;" edge="1" parent="IIEYeDENxH2M8i28GUqi-205" source="IIEYeDENxH2M8i28GUqi-220" target="IIEYeDENxH2M8i28GUqi-227">
          <mxGeometry relative="1" as="geometry" />
        </mxCell>
        <UserObject label="&lt;div style=&quot;font-size: 1px&quot;&gt;&lt;p style=&quot;text-align:center;margin-left:0;margin-right:0;margin-top:0px;margin-bottom:0px;text-indent:0;vertical-align:middle;direction:ltr;&quot;&gt;&lt;font style=&quot;font-size:13px;font-family:0;color:#323232;direction:ltr;letter-spacing:0px;line-height:120%;opacity:1&quot;&gt;&lt;b&gt;扫QS码退库&lt;/b&gt;&lt;/font&gt;&lt;/p&gt;&lt;/div&gt;" tags="Background" id="IIEYeDENxH2M8i28GUqi-220">
          <mxCell style="verticalAlign=middle;align=center;overflow=width;vsdxID=46;fillColor=#f2f2f2;gradientColor=none;shape=stencil(lZHdCsIwDIWfJrcjJuC8n/M9ButssLajq39vb2sQp4jMu5PkOyGcADeT7UYDhFOK4WAu0icLvAUi8dZESVkBt8DNEKLZx3DyvdZjV8iijuFcNlzVt+KqrouL8KYdfFQ7hZ34OYy4FN2sK+I3+Gn+iuNy9L+Lf8NZvIIZxDnNdT7/DDK39Anc3gE=);strokeColor=#323232;strokeWidth=2;spacingTop=-3;spacingBottom=-3;spacingLeft=-3;spacingRight=-3;points=[];labelBackgroundColor=none;rounded=0;html=1;whiteSpace=wrap;" vertex="1" parent="IIEYeDENxH2M8i28GUqi-205">
            <mxGeometry x="688" y="31" width="87" height="36" as="geometry" />
          </mxCell>
        </UserObject>
        <UserObject label="&lt;div style=&quot;font-size: 1px&quot;&gt;&lt;p style=&quot;text-align:center;margin-left:0;margin-right:0;margin-top:0px;margin-bottom:0px;text-indent:0;vertical-align:middle;direction:ltr;&quot;&gt;&lt;font style=&quot;font-size:13px;font-family:0;color:#323232;direction:ltr;letter-spacing:0px;line-height:120%;opacity:1&quot;&gt;&lt;b&gt;扫QS码退库&lt;/b&gt;&lt;/font&gt;&lt;/p&gt;&lt;/div&gt;" tags="Background" id="IIEYeDENxH2M8i28GUqi-227">
          <mxCell style="verticalAlign=middle;align=center;overflow=width;vsdxID=46;fillColor=#f2f2f2;gradientColor=none;shape=stencil(lZHdCsIwDIWfJrcjJuC8n/M9ButssLajq39vb2sQp4jMu5PkOyGcADeT7UYDhFOK4WAu0icLvAUi8dZESVkBt8DNEKLZx3DyvdZjV8iijuFcNlzVt+KqrouL8KYdfFQ7hZ34OYy4FN2sK+I3+Gn+iuNy9L+Lf8NZvIIZxDnNdT7/DDK39Anc3gE=);strokeColor=#323232;strokeWidth=2;spacingTop=-3;spacingBottom=-3;spacingLeft=-3;spacingRight=-3;points=[];labelBackgroundColor=none;rounded=0;html=1;whiteSpace=wrap;" vertex="1" parent="IIEYeDENxH2M8i28GUqi-205">
            <mxGeometry x="498" y="31" width="87" height="36" as="geometry" />
          </mxCell>
        </UserObject>
        <mxCell id="IIEYeDENxH2M8i28GUqi-167" value="&lt;div style=&quot;font-size: 1px&quot;&gt;&lt;/div&gt;" style="verticalAlign=middle;align=center;overflow=width;vsdxID=25;rotation=90;fillColor=#f6edc1;gradientColor=none;fillOpacity=0;shape=stencil(jU9BDoAgDHvN7siegPgPElCIBghg1N/LwkHx5K3d2rUDFNmqaICzXFJYzeF0sYAjcO68NcmVigAloJhDMksKu9eNR0VKQpvzdOFsvoEx8nB29Xz6I+6kFTwhrd979y1UR+0ZlDc=);strokeColor=#323232;strokeWidth=2;points=[];labelBackgroundColor=#ffffff;rounded=0;html=1;whiteSpace=wrap;" vertex="1" parent="1">
          <mxGeometry x="172" y="615" width="103" height="1148" as="geometry" />
        </mxCell>
        <mxCell id="IIEYeDENxH2M8i28GUqi-168" value="&lt;div style=&quot;font-size: 1px&quot;&gt;&lt;p style=&quot;text-align:left;margin-left:0;margin-right:0;margin-top:0px;margin-bottom:0px;text-indent:0;vertical-align:middle;direction:ltr;&quot;&gt;&lt;font style=&quot;font-size:15px;font-family:0;color:#000000;direction:ltr;letter-spacing:0px;line-height:120%;opacity:1&quot;&gt;&lt;s&gt;&lt;b&gt;移库&lt;/b&gt;&lt;/s&gt;&lt;/font&gt;&lt;/p&gt;&lt;/div&gt;" style="verticalAlign=middle;align=left;overflow=width;vsdxID=26;rotation=270;fillColor=#f6edc1;gradientColor=none;shape=stencil(nZBLDoAgDERP0z3SIyjew0SURgSD+Lu9kMZoXLhwN9O+tukAlrNpJg1SzDH4QW/URgNYgZTkjA4UkwJUgGXng+6DX1zLfmoymdXo17xh5zmRJ6Q42BWCfc2oJfdAr+Yv+AP9Cb7OJ3H/2JG1HNGz/84klThPVCc=);strokeColor=#323232;strokeWidth=2;points=[];labelBackgroundColor=#ffffff;rounded=0;html=1;whiteSpace=wrap;" vertex="1" parent="1">
          <mxGeometry x="136" y="651" width="103" height="31" as="geometry" />
        </mxCell>
        <mxCell id="IIEYeDENxH2M8i28GUqi-222" value="" style="edgeStyle=orthogonalEdgeStyle;rounded=0;orthogonalLoop=1;jettySize=auto;html=1;entryX=0.934;entryY=0.535;entryDx=0;entryDy=0;entryPerimeter=0;" edge="1" parent="1" source="IIEYeDENxH2M8i28GUqi-218" target="IIEYeDENxH2M8i28GUqi-220">
          <mxGeometry relative="1" as="geometry">
            <Array as="points">
              <mxPoint x="1084" y="770" />
            </Array>
          </mxGeometry>
        </mxCell>
        <mxCell id="IIEYeDENxH2M8i28GUqi-226" style="edgeStyle=orthogonalEdgeStyle;rounded=0;orthogonalLoop=1;jettySize=auto;html=1;entryX=0.532;entryY=-0.027;entryDx=0;entryDy=0;entryPerimeter=0;" edge="1" parent="1" source="IIEYeDENxH2M8i28GUqi-218" target="IIEYeDENxH2M8i28GUqi-217">
          <mxGeometry relative="1" as="geometry">
            <mxPoint x="1080" y="860" as="targetPoint" />
          </mxGeometry>
        </mxCell>
      </root>
    </mxGraphModel>
  </diagram>
</mxfile>
